<svg xmlns="http://www.w3.org/2000/svg" width="1920" height="1080" xmin="135.75877011116276" xmax="143.09262988883728" ymin="33.70239480361805" ymax="37.06475354488502" scale="15000" style="background-color: rgb(26, 26, 26);"><path d="M-189.03819695032143,496.20713285505735L-234.19875113519083,459.5688114775421L-233.43975022449013,457.3355691047436L-141.1292605202325,418.8569671430341L-140.2624015855472,418.27593911938493L-148.9309909336007,493.8481874019144L-148.0920951902517,495.9076741021454L-116.04627779343718,523.303590745998L-115.83855122821114,523.904321934624L-79.054970252153,475.7598619355849L-77.7207265459947,474.9221774690632L-60.83495365440467,545.0203543970292L-60.283679308660794,546.861415862737L24.72042794504523,576.6848058534542L26.006734751543263,575.9360293903846L19.07585801446112,668.5070415005302L17.809524916323426,671.340238579889L76.68802187628899,751.4498842252251L77.6068124522717,751.9809744348458L-0.25469675776548684,755.2936660172763L-0.9617660271687782,755.4637856605932L-37.09020937511377,680.8409123724832L-38.18876332498621,677.6674981418892L-215.08790715277428,570.0135723032236L-218.12391079559893,568.8582909391862ZM-87.8793545241133,451.40676529589837ZM-73.45434247962112,478.22731086248314ZM-109.92233886674512,510.27409759948387ZM-1543.7190012850842,1116.1219099505743ZM-1535.5777178328062,1114.3403720318092ZM-1550.3702461075518,1117.3159304120672ZM-1571.258750117624,1123.704725021731ZM-1540.6031028098878,1129.8619554247434ZM-1497.511824791647,1153.116931157676L-1366.0608565465882,1176.832904449364L-1366.0089249052908,1185.5695089594374L-1484.0016085817915,1308.1113784860918L-1485.208020555634,1308.0078090160277L-1569.688816655187,1209.7805754422297L-1570.7873706047758,1209.3827293123395L-1546.703073286597,1126.8674006849178L-1548.1971066580372,1126.2598216500137ZM-1516.1792524528137,1135.0965399980396ZM-1510.626561579964,1152.384228730638ZM-1545.264966298084,1174.3244254410401ZM-1544.270275630828,1175.1606107681582ZM-1550.7617307880137,1200.4039640760711ZM-1450.7533739527353,1315.5792591851623ZM-1216.9411460492702,1242.9164903122473L-1160.311688629823,1351.9541905185251L-1159.8163406669992,1352.2655922050944L-1240.973511726137,1440.5482642372863L-1241.3649964063443,1441.6666714715666L-1218.4831163203708,1558.6307104211683L-1217.540357294427,1561.14592290554L-1412.8432758354902,1555.3731057408968L-1413.5503451048862,1554.8374113868213L-1336.6076264708245,1415.7113752488767L-1334.985761367061,1414.9868210710902L-1385.6430800418457,1423.1503050213341L-1387.4766664524504,1422.6535688302192L-1348.9393938984358,1365.7844161044995L-1347.0299073968345,1364.8494686725462L-1399.1253330603868,1300.9546455352756L-1399.4688808411665,1299.248232574988L-1330.0642396725889,1247.066399712994L-1329.8285499160338,1246.648812186937L-1252.1787620125688,1292.5251511294464L-1248.9829687044767,1292.7740951972446ZM-1397.084020084818,1441.4806682937797ZM-1380.1463155519305,1432.0995225368497ZM-1418.4998299906947,1424.9735709594897ZM-1390.1211854147914,1426.589278371046ZM-1384.4406628096403,1426.9211802448008ZM-1386.2183228373033,1443.4271241794122ZM-1407.5822011018536,1431.0435459802156ZM-1388.707046875992,1435.0195456354359ZM-1480.334435760844,1440.3207860889888ZM-1415.1482417589286,1485.319432769742L-1514.3975976835136,1536.3957589888087L-1516.1792524528137,1535.5491640955915L-1504.5265911029855,1446.822138395799L-1502.565172960327,1444.9789788835224L-1388.419425478416,1447.8561970537066L-1387.240976695888,1446.4490150362162ZM-1405.776577882847,1442.453320872306ZM-1398.342363699965,1443.8820279398387ZM-1457.0610709946632,1443.4058003836017ZM-1402.556816125034,1444.6899376809797ZM-1393.077294224975,1445.9526940071664ZM-1394.1798429162227,1446.9465117399213ZM-1409.9390986666112,1447.298307625042ZM-1396.089329417824,1449.3260815981484ZM-1379.4911779238391,1460.8538772242828ZM-1447.6654386688606,1485.6920374520432ZM-1446.9583693994573,1487.0558465757877ZM-1397.9468842781425,1496.9553698148175ZM-1422.139039620306,1491.2107375303112ZM-1401.2745040602022,1490.7968136198378ZM-1419.598383940298,1491.8103250309177ZM-1424.1563841461466,1496.004713333601ZM-1447.4537173620265,1497.493351417539ZM-1427.8714938667763,1497.0996208404576ZM-1416.694206771681,1499.0008272611958ZM-1426.721008275861,1505.6741287050645ZM-1413.917861335387,1501.9765239098942ZM-1428.6584579688133,1516.59978271418ZM-1432.4015308810413,1506.4802552875572ZM-1452.2264310652608,1506.4961118414012ZM-1429.2856324055829,1510.8178114047696ZM-1472.1172522172928,1529.5230806091877ZM-1515.5760464657578,1548.464934832471ZM-1489.106888391485,1550.6093161921453ZM-1412.7673757444718,1550.485402068267ZM-1495.5743750986949,1562.1568995648922ZM-1514.8170455550571,1555.7848990999155ZM-1504.2669328967168,1554.0527305587366ZM-1495.1549272271513,1556.776010296362ZM-1494.000446894628,1560.5077030958018ZM-1495.9418913291884,1563.1878932532345ZM-1514.5014609658683,1565.9704442716975ZM-373.52734988490556,807.7587525449562L-371.7976267569102,846.8113782461369L-372.0093480634896,848.7161236871361L-422.6426982888297,837.9421572497813L-423.4536308405877,837.4140040582406ZM-418.6879040700296,819.0529245749713ZM-419.6546315457017,822.2723657832594ZM-422.1952872257025,822.6323467281218ZM-468.35053207782767,826.5724242109663ZM-458.6393151628363,828.3937998560978ZM-467.09618320431036,828.0544978531452ZM-439.63233446277445,840.5888214975457ZM-465.394423267644,831.7187294802134ZM-463.37707874206535,834.3442080956465ZM-429.7892910738592,836.4400425907115ZM-467.6953944494817,836.0802492635976ZM-462.72194111396675,845.8801464892967ZM-461.2838341251918,837.1596145911408ZM-471.41449891198863,837.85857407412ZM-411.98472760626464,838.0705598756576ZM-460.18128543396597,840.3562647941908ZM-471.28267243804294,842.2820634923428ZM-375.85628425831965,845.0760397057802ZM-458.7152152538547,848.2717356805442ZM-369.0772077032816,847.7643735138627ZM-446.1757212612647,854.4077488931543ZM-511.07828860693553,855.5081584328818ZM-428.3991209850283,854.4295396238613ZM-481.54516369852354,853.7104360630692ZM-518.3806763158718,855.5287377146415ZM-433.6881589097393,859.3792037199528ZM-428.558910650303,856.3761060500419ZM-425.1793592269605,856.5237874774539ZM-547.9138012242765,865.1326790599578ZM-450.2343787624195,866.1261589317874ZM-510.00370310703875,858.216012727069ZM-518.2248813922124,859.019721414219ZM-522.2555757020382,869.3822375126365ZM-539.1413485936209,874.9012928877019ZM-425.1553907772395,938.3522960921018L-543.8791121728427,982.1830560725357L-544.4823181598913,982.2673927785399L-574.2511328248729,903.8895825468535L-576.396309082782,903.5512434913489L-425.626770290095,859.6757426990735L-425.1553907772395,859.6539562745656L-345.59212163054326,920.5885275383516L-345.3324634242672,920.4617303333234ZM-415.0486944404256,862.5526040573895ZM-480.2109199923434,862.0237303369377ZM-507.12349438812817,864.9632634367063ZM-504.50693861711625,863.5885367055471ZM-551.4970844712225,867.923040939073ZM-498.538794614331,868.6853178030779ZM-519.639019931019,873.2730366802916ZM-559.4586045498727,881.4532297672085ZM-553.5943238294567,880.5655410985928ZM-545.1094925966536,889.5051721265827ZM-559.5864362822031,890.9414241590712ZM-559.4586045498727,905.241687524891ZM-544.0908334796768,901.6093358876897ZM-557.4412600242867,924.2182948671889ZM-556.4465693570237,925.4003380725335ZM-602.9932988893706,937.9299175058604ZM-583.1234539962461,946.808117531049ZM314.7186969464601,535.6856411197514L373.01795636936004,587.0100914776085L373.59719390643295,587.4589238671997L540.3896413976545,599.4461181312163L544.3404408745773,600.5144757695998L451.8461930550766,771.4707734019812L451.6384664901125,772.5527801501376L333.17440330077807,802.1626221405368L329.53519367117406,802.9474131921907L415.118538461953,756.7590891866348L416.9760933222642,755.4844429710647L313.751969470788,723.6237498579121L312.094151692203,724.9011577200963L320.6868409492381,682.5651677753995L320.399219551633,681.5440323523835L317.7027689479728,764.9328562333412L317.62287411507714,765.6130792524636L283.4558489100673,744.164237794872L283.0124325885481,743.8663998525917L296.57458043970837,641.6251569892302L297.80496086326457,641.6044097569866L266.7817973250276,661.5178263400303L264.84434763207537,661.666604395994L241.09960335281357,595.4937913367012L240.57629219866067,591.3696748268103ZM275.71004487960454,669.755441547346ZM277.90315803718113,684.5573638848291ZM274.8471806862872,719.8167059336829ZM404.93194729223615,731.0732039827781ZM405.1436685990775,737.236505180439ZM385.165965681721,736.6418849957736ZM350.5315557052163,743.6111075038734ZM408.37940932335187,753.7175767725548ZM337.8442562722121,759.2826823940213ZM414.4873692835754,757.6971116249151ZM390.3551350656926,760.8159175238397ZM324.7175352590566,764.041251612658ZM326.4432636454294,774.7603733756423ZM358.2014596446461,780.4472926016879ZM349.7206231534583,779.6193417639042ZM1100.2446920762377,-29.144848579546306L1174.9623396194947,12.777304424891554L1175.593508797865,12.68974027834156L1159.830258305592,216.08977338891418L1158.86353082992,217.69410124365277L1027.308699302259,281.64537877684415L1025.9744555960933,281.6664181793476L945.4963906150224,228.16501997354317L945.2886640500583,227.9703036714891L974.9216574992097,159.1029258590279L975.1054156144601,157.75479980546515L934.291140328336,135.00982969605866L934.2392086872933,133.6392483773525L968.4821339833434,33.93004035458216L968.9535134964535,31.155211974384656ZM683.697002815883,356.1555372333278L831.2467798504949,395.0523542279807L833.8912988131196,393.9101523178597L882.8987891925499,470.24194342718147L883.7097217445626,470.8009137280642L817.0574575625578,544.8929574127451L815.3556976261607,546.3053139491076L735.0374223103718,528.7452156504714L733.0720094258213,529.3887202867736L702.0488458875698,611.578076670572L699.1167055273618,610.3183368506288L652.7257709186815,563.2108682797025L651.8868751753544,562.3343916678386L636.3633091812444,442.8744125000376L633.954479975444,439.6938833602162ZM102.42214748958213,444.52970620240376L179.20907119999174,543.6287533786544L179.41679776494857,543.7365561290917L158.55226220483019,697.1698704227983L158.86784679404082,698.8723495217382L33.64867549936753,708.2559208438961L33.04546951257362,707.9795875239579L4.9025146932544885,559.2530230080829L1.2912682549722376,558.1621527889274L107.08401097776368,487.133462718577L107.26776909300679,487.1543338580286ZM755.4305783576201,213.40077590201508L695.9768386022042,207.19774204895657L691.7064597942226,205.8521851441892L698.4096362579658,156.4078452962367L698.6453260145281,153.27711017950787L872.2168500602638,6.894811322570604L873.946573188281,1.9532939125092526L949.1076370530573,50.19782555274105L951.5444294504414,50.415157374181945L934.8663831237936,138.75147218441998L934.3950036109454,141.05642507544144L973.6393454343488,156.4078452962367L975.1054156144601,157.75479980546515L944.7373897043217,226.43112397436016L945.2886640500583,227.9703036714891L1023.5895948400066,276.9940053272403L1023.7733529549951,278.0758536927897L884.1571328076825,256.62957123855085L882.4034412300025,255.04877079735888L774.5414223400367,349.1244899534504L773.3350103662087,351.6905467637298L738.8044636723062,293.47296216471113L737.8896678379388,292.4573349609145ZM1498.8360176867063,-636.0424104811955L1548.003297731695,-599.0941659496802L1548.7622986423958,-598.4438507229534L1489.4883222605931,-533.5704632574543L1488.5974948759394,-533.6600064826744L1509.517956818985,-399.92174929281464L1509.3861303450467,-399.2767954904357L1485.6413860660177,-440.8625044417604L1485.0381800789692,-441.8424384112841L1390.5825141165333,-432.44613930698506L1388.593132782269,-431.91113800650965L1319.6598711268016,-234.63429749458192L1317.9341427404288,-233.59697824765135L1183.682860608853,-301.0802276545219L1182.400548543992,-302.82868196908566L1272.5898304400544,-460.3998795142179L1272.6936937226565,-460.57842252985574L1253.347159983692,-604.1600474929492L1253.6347813815519,-606.1115129904701L1323.3789755890539,-631.3062763032831L1326.6506689881717,-631.0134298807498L1428.9599970052805,-559.0692425180459L1433.6218604934547,-558.6889230146953L1485.2219381942123,-570.4841980764977L1486.8957349392876,-570.4175779775105ZM1535.8273252279687,-586.3424928562508ZM1540.5930519985195,-589.993926492516ZM1506.114436945929,-492.1145540843245ZM1503.0504701117752,-468.26978015264103ZM1510.248994538364,-454.6068757430403ZM1527.3464887365262,-449.61578129815643ZM1527.6061469428023,-440.75036888959767ZM1529.5955282770592,-437.2107209943224ZM1483.2565253096764,-434.27160195162105ZM1390.790240681752,-430.6424679837837ZM1394.7969665416022,-430.1087803156461ZM1392.0485842966373,-429.7304933303276ZM1414.143500280581,-426.34655293883225ZM1404.5081834566008,-424.94446428256197ZM1402.1273174421294,-424.00978368456526ZM1404.0368039437453,-424.6553970772529ZM1404.719904763435,-417.22360890713026ZM1401.0008003009352,-419.09248167556325ZM1401.9954909681837,-422.3633565646178ZM1386.3680616914644,-420.538792966503ZM1385.7648557046778,-420.82781096167673ZM1400.0860044665606,-417.8244841285905ZM1390.3468243602401,-416.7780542917408ZM1414.5110165110673,-414.48676017742036ZM1522.5288303246853,-398.3876269920638ZM1479.2537941914416,-403.7892882583674ZM1503.5737812659281,-390.7629797893205ZM643.9812814793695,461.7170643000045L653.484771829404,560.7294813272656L651.8868751753544,562.3343916678386L699.1167055273618,610.3183368506288L702.0488458875698,611.578076670572L738.0214943118845,526.904091119477L739.092085069904,525.6610740956821L847.3455886400552,539.3469062790246L847.713104870556,539.4976099145406L886.0666193093057,687.3985703500002L887.27303128317,688.9104246405823L807.7377253277809,795.4636578625996L807.6058988538352,795.674770307005L786.5336367287673,680.4570520741399L786.557605178481,676.4536020164014L822.8418434503401,654.1217576884919L824.0202922325916,653.2044211797693L768.8329365435347,623.3624286797549L768.860899734871,622.2302776224933L682.8061754312293,694.1056165276404L680.2934829428195,695.6158659265529L647.7802807745102,796.1843451179229L646.1024892878268,797.7530458632682L455.0140231718324,772.0864661882752L451.6384664901125,772.5527801501376L541.7478535535411,601.9678117724234L541.6719534625154,600.8567320948769L620.604053430834,551.5277920018052L623.9037100212881,549.7727942674828ZM892.717864131766,656.8491796948874ZM819.018875705493,658.4701288119177ZM644.0851447619862,790.1828711662802ZM1259.1075774214987,41.70416576217576L1320.6545617938027,75.83243820653115L1321.4135627045107,76.48625523708506L1256.8545431393577,252.34284593594566L1256.8785115893334,264.01194221812693L1332.5948445412287,429.5679300580323L1333.3778139016285,429.67498020772473L1248.7651913283844,364.3923710510044L1244.211185864151,360.29526068671294L1150.8780423013231,397.8072292829529L1148.7328660434068,396.8388677970688L1029.0903540715517,283.8940210021847L1028.6429430084172,282.1862096467157L1159.830258305592,216.08977338891418L1160.5133591252961,215.7423417235732L1175.5136139652313,47.48976241874334L1176.4284097995987,44.91383206028877L1231.3041756410894,87.69207014938729L1231.7475919626013,89.39190203895669ZM1296.594232925585,366.1600571061226ZM-1970.161665575688,2861.694755855786ZM-2048.54648594014,3117.0097167510157ZM-2052.1856955697513,3118.576549197045ZM-2044.5397600800352,3123.3550415900854ZM-2047.3680371576338,3141.5823952035753ZM-2049.6989689017355,3147.336259593845ZM-1991.0821275189737,3198.490395378715L-1965.7914182269524,3153.402604925618L-1964.19352157291,3152.0915710867466L-1947.882991476763,3191.8462997684082L-1948.0667495920134,3193.097060774714L-2074.30657737406,3282.793891131784L-2075.6947500922106,3282.053364024745L-2075.620847372149,3356.407579097632L-2075.6627921592662,3358.799494779595L-2114.861194453937,3385.8572199714117L-2115.9597484035476,3386.323084114878L-2124.8340669458557,3353.002745478744L-2126.693619177102,3350.221423843479L-2106.717913630717,3280.045829166189L-2106.979569207666,3279.344279058634L-2040.2993418343176,3247.868781946325L-2037.7067545132668,3244.669032258981L-2063.442877497495,3203.863295637263L-2063.075361266994,3200.8544215413867ZM-1943.8283287169688,3190.243781016834ZM-2082.0044445050808,3201.7728192652257ZM-2026.0840537257172,3205.015796418271ZM-2023.020086891578,3219.527643647235ZM-2004.4085856136007,3213.903583835354ZM-2067.579432460603,3224.1749087144826ZM-2079.0723041448655,3219.839939534999ZM-2023.3077082894233,3222.417526274159ZM-2238.6642298385996,3240.1809416552715ZM-2032.1840242027101,3296.5514657727344ZM-2364.9056685730757,3306.895468431426ZM-2267.1227692471075,3296.609991914762ZM-2049.017865452988,3311.2767899891132ZM-2255.052657396678,3306.4080676494405ZM-2322.91133355254,3307.479046132279ZM-2072.31919341076,3310.3524664348315ZM-2334.5619975314185,3309.6994631361767ZM-2338.8563447891283,3310.108427428754ZM-2329.27295960646,3309.0369750589725ZM-2331.9434443894643,3309.6994631361767ZM-2042.0530334122814,3317.9168024223973ZM-2049.802832184345,3316.72861503263ZM-2033.8078866773867,3321.051121942277ZM-2151.251293379086,3331.1144095054415ZM-2142.087356067961,3332.5743682322654ZM-2141.538079093152,3332.0097692237614ZM-2046.5031755936434,3337.5757259004067ZM-2186.750564919588,3335.765790598217ZM-2213.533310212122,3344.152143434607ZM-2174.1052102734466,3338.781553527955ZM-2197.2487459366166,3342.7706114164766ZM-2175.0479692993977,3341.895018301586ZM-2202.0384411571504,3365.564829007317ZM-2178.0839729419677,3349.6571183252217ZM-2229.7120138343016,3347.322997709328ZM-2218.009418214395,3344.8913123393995ZM-2211.3322075712567,3350.279857311336ZM-2221.0194560362797,3353.6638184615467ZM-2194.420468859018,3350.7078098368147ZM-2218.245107970666,3356.775919477751ZM-2230.1833933474045,3360.6454779881615ZM-2216.830969431867,3361.2096011553203ZM-2061.741117560836,3363.7758540801497ZM-2204.840752414093,3361.6563311098225ZM-2221.856354408941,3362.687181212148ZM-2217.3802464066757,3362.5514423472323ZM-2203.794130105787,3367.4899858653325ZM-2090.695004932175,3370.833303595564ZM-1165.7954529930212,3428.7346873616034ZM-3161.315245843005,3431.395050191685ZM-1185.4732597217953,3462.3459174400577ZM-3219.6927627907608,3484.8912638020674ZM-3198.2419681296997,3487.779285560293ZM-3194.7904688509007,3489.0853338098314ZM-2752.1043774587597,3721.0658892116126ZM-2736.5808114646643,3723.1829031182097ZM-2736.5288798236215,3781.1749178875234L-2748.7028549566603,3725.97309486465L-2750.4305807137134,3723.971864663059L-2697.022882423007,3776.448458726557L-2694.300465998698,3779.0426461803254ZM-2769.2018716572056,3752.401918593927ZM-2769.2018716572056,3752.401918593927ZM-2895.2579413242856,3771.086873019588ZM-2752.0264799970755,3780.8291675622813ZM-2897.6408047094083,3801.861658782139ZM-3033.1464357142577,3891.537127329424L-3058.724766404146,3857.2158773841247L-3059.1182484550336,3856.1034575962685L-2990.500571388733,3817.1620266425625L-2990.186984170221,3817.4113308819014ZM-3124.8037851613626,3851.5020212397794ZM-3337.200196464084,3860.134597692685ZM-1196.9187532353317,3853.0877634260632ZM-3040.137233575879,3856.2954456978423ZM-3112.002635591587,3912.6576592679166L-3162.292438036122,3904.7509449007093L-3167.397717845837,3897.5312505528345L-3136.400520128009,3860.3406728122754L-3135.8512431532035,3860.3406728122754L-3099.2254544717543,3880.617604301755L-3094.723380648833,3881.0967004629456ZM-3152.5013262885186,3881.0583291494295ZM-3078.2550582580843,3882.341553540795ZM-3146.6630113887477,3886.652439367028ZM-3081.3709567335427,3892.9734176651764ZM-3096.922485918989,3887.820922078091ZM-3057.364556877332,3896.784436256743ZM-3040.8962344865868,3891.4220462932635ZM-3075.636505116385,3922.57218218867ZM-3095.4024867268963,3921.366483296535ZM-3097.5496603557476,3925.768570227946ZM-3195.255048638268,3930.743276374469ZM-3133.2067241908517,3972.8132283342466ZM-3197.888736351444,3471.25315142014ZM-3198.996185550295,3472.0269055720464ZM-3198.5968687916647,3472.098444397865ZM-3191.9970049870826,3479.077769015543ZM-3207.8026878703495,3484.7060543391244ZM-2336.8327416389293,3233.922197145437ZM-3207.6314166441625,3484.8115647731356ZM-2932.7775348586183,3430.6426734620118ZM-2932.769128167969,3430.4919396704945ZM-2932.144700299945,3430.188683173108ZM-2931.8871333868774,3430.1305705332825ZM-2932.0583503126145,3430.0497525223564ZM-2931.7907912427363,3429.9780472915036ZM-2932.040671446637,3429.894633586706ZM990.9964978390635,-704.6620118284609ZM1076.2642580406537,-683.281830652275L1203.2890525540715,-651.4943748514197L1205.2544654386293,-652.0548639066892L1278.6898009170254,-567.4403612224833L1279.5526651100809,-565.5368787115658L1182.999759789418,-237.74904627757496L1182.8958965068086,-236.68884997741407L1029.2181858038748,-258.3618675223024L1026.8652829807615,-258.0520093293635L1027.7281471738024,-366.4411902039101L1028.6709061997535,-369.48262153517317L1083.726435414872,-402.1887646410705L1083.858261889065,-406.1241050731951L991.2601507869476,-494.68142531785634L990.0018071718077,-494.9930442420755ZM-60.23174766736338,875.0065333566108L-8.891328172874637,911.1326330572283L-7.792774223256856,912.2512340468747L-55.51795253810269,954.6075929830367L-55.72967384468211,955.2817680991393L-36.93041970984632,1026.2165390493974L-36.77462478593225,1026.6158785563493L21.920114058775653,1018.7109812900744L23.334252597582235,1019.1320890221596L65.53470323090733,1072.7178339955844L66.11394076798024,1073.347028165188L1.2633050636359258,1163.9734600668198L0.9237520244787447,1164.5598526774556L-180.66122374148836,1023.2742345880833L-183.66926419271476,1024.1572002935736L-144.0094692391358,938.9641298033748L-143.95753759782383,938.2050677429634L-180.97281358880718,894.0687520327829L-179.4028801263412,889.9911852780679ZM-186.9689207831616,893.7508379108876ZM-196.55230596583715,898.799542572322ZM-150.84047743522387,938.5839980805777ZM-171.9926343931802,951.8045790469569ZM-177.8848783049325,951.4668466988769ZM-166.75952285115636,981.3203968188373ZM40.97902639989479,994.877565303641ZM-173.4587045732842,985.3214076409276ZM-174.7170481884241,985.6996716682297ZM-175.47604909887013,990.0987074257355ZM-179.29901684373908,1002.7894739845178ZM31.84305228035373,1014.8629543779425ZM-160.13624122001056,1031.3666019144803ZM-116.12617262607819,1065.0570600487117ZM-103.45485215952795,1082.4110817518413ZM-102.77574608146824,1085.0948990575562ZM49.53975772397098,1106.3148064045654ZM-70.80982351728017,1130.2393968630622ZM-52.01056938244437,1140.1217024475554ZM19.119800172527903,1159.6026420721137ZM15.24490078636154,1160.6068433605305ZM-1656.1070624476924,763.0232792047373ZM-1669.145899144729,851.848424170299L-1676.2165918387036,891.3850991436757L-1677.3670774296188,892.6109092977913L-1709.7005162243004,872.7020346556619L-1710.0640377131785,871.708800635095L-1660.245614781743,766.0588587427173L-1659.0392028079004,764.8903417116107ZM-1644.0669111592797,770.6000353888303ZM-1700.352820798209,851.022704776562ZM-1699.9493518931267,852.5179402392896ZM-1699.2263036570075,854.0251975952651ZM-1663.0738918593488,875.2605603580523ZM-1665.6105527974505,880.4179932439001ZM-1680.7186656616323,874.9859691597921ZM-1679.9836332006453,876.9310298409109ZM-1682.236667483041,878.6219557761597ZM-1680.2992177898414,879.9741353359805ZM-1682.316562315682,889.927109425209ZM-1713.5754156104595,959.6870059696012L-1716.7432457269751,884.2007649687985L-1716.164008189895,881.4532297672085L-1679.0408741749488,895.7368323601677L-1677.287182596985,898.420046691439ZM-1665.874205745611,887.5610307597417ZM-1685.4044975995494,891.4274110856222ZM-1675.4016645453376,900.4056929746876ZM-1706.0852750446793,955.7460827640716ZM-1589.191145317789,1029.9378649195296ZM-1592.179212060917,1029.5590204225864ZM-1586.6265211880745,1028.8229644437652ZM-1582.0205840827985,1079.3692601215516ZM-1596.3657012944022,1040.2343806172212ZM-1600.8158434760262,1064.0072722453442ZM-1604.3791530143571,1070.5983984904724ZM-1543.1437584896266,1067.9323567719548ZM-1571.1309183853155,1071.3321142458044ZM-1605.1621223750335,1073.5991820211275ZM-1600.0568425653255,1075.0472200341046ZM-1606.0809129510162,1081.1735073808122ZM-1624.7723090618674,1110.946014465575ZM-1624.7203774205773,1153.242637923684ZM-1577.7502052748023,1173.2166497113267ZM-1579.2202701965289,1158.8701143019534ZM-1636.2891491958726,1167.4030793982656ZM-1660.6370994619574,1190.3546183574708ZM-1629.7457623973824,1168.3232352329906ZM-1583.2749329560684,1168.7623623640739ZM-1590.3695941000406,1173.1532443381475ZM-1556.8097696234254,1191.1281441930823ZM-1671.3190385942362,1247.337231650983L-1621.3408259972202,1187.8892320337836L-1620.5059249955157,1187.8473831071678ZM-1565.3185693061969,1177.188163925477ZM-1603.9317419512226,1186.823857943391L-1457.664276981457,1312.8965778950278L-1454.7600998128255,1313.1881863307553L-1484.264341250113,1342.8530920177618L-1483.6912489332026,1343.6718126579017L-1409.2839610385126,1367.1339160852167L-1408.8645131669691,1369.2934544502968L-1461.2795181613546,1426.83820514724L-1463.7123158171307,1427.5837867964037L-1457.1689290186405,1368.213706309898L-1460.7002806242745,1364.4134658772218L-1518.6400132999188,1373.5894612676748L-1519.5827723258699,1373.7972965198715L-1574.270785310502,1432.5960902681763L-1576.0244768884368,1434.2943087215608L-1541.7296199508346,1379.29664498298L-1541.7016567594983,1377.9061764250164L-1602.2299820148255,1325.561445209827L-1602.67739307796,1325.1462373116665L-1593.433560934187,1271.492558835389L-1592.5187650998341,1269.4719822687002L-1562.9616717414538,1338.5736802493539L-1563.2213299479772,1341.6914244317159L-1506.619835719859,1349.461662152411L-1505.625145052596,1348.069694733489L-1623.3581705228135,1233.029585315895L-1624.3009295487573,1232.6953446135522ZM-1565.6061907040566,1178.1917170243414ZM-1611.3939193256883,1181.1387678545925ZM-1617.9133376741884,1205.2486099004764ZM-1738.574508763013,1223.368383404375ZM-1619.5631659695646,1210.2178410843135ZM-1622.1797217405765,1210.4269137141655ZM-1619.8228241758334,1213.6428466153557ZM-1621.7602738687638,1215.438204766533ZM-1621.6284473948253,1218.3812381643074ZM-1625.215725383132,1218.2761352823163ZM-1623.2782756901724,1219.1121697628168ZM-1751.0900343059038,1223.7230379869598ZM-1623.0186174839255,1220.9895712123744ZM-1622.3634798558123,1221.866125473969ZM-1624.0892082421851,1221.031369396611ZM-1752.4522412033766,1221.260661156999ZM-1681.1101503418467,1222.5133723112667ZM-1624.4327560227102,1229.3992740435679ZM-1735.0950887989384,1231.318946156478ZM-1751.6932402926905,1232.1116073165995ZM-1756.4549723218806,1242.8329606708794ZM-1620.633756727846,1233.760125790608ZM-1735.0151939660427,1250.4020991718426ZM-1763.813286413715,1237.7228489429162ZM-1618.6723385849182,1235.2820225243595ZM-1677.6546988274858,1235.1161100465906ZM-1614.9292656729522,1236.992414159511ZM-1613.279437377605,1237.1809923248802ZM-1612.9398843384406,1240.538182520566ZM-1609.6921593892985,1240.9140953789065ZM-1618.0172009567978,1239.0786370461683ZM-1679.8278382769859,1239.8293042412824ZM-1788.0294102058615,1240.6431999651704ZM-1774.9386418675203,1242.436788047462ZM-1617.2582000461189,1249.8175459732283ZM-1681.8691512525475,1243.1455988789548ZM-1609.1408850435546,1242.5620842252665ZM-1678.7013211357844,1244.604927766908ZM-1763.5775966571673,1244.0632072232347ZM-1755.6200713201615,1244.813737893015ZM-1766.4578053760706,1244.3961160500821ZM-1763.5496334658383,1248.6507882506776ZM-1794.7325866696192,1248.129429539009ZM-1760.7493195795687,1246.523534688782ZM-1632.3623181684088,1247.8991695607147ZM-1593.0660447037008,1250.9436944845584ZM-1754.1260379484447,1357.2297175813837L-1741.666438788503,1251.4232479260154L-1740.7236797628066,1249.1089076318385L-1722.056252101902,1299.1434389403366L-1721.6887358714157,1299.4971158590906ZM-1602.385776938485,1250.672898165165ZM-1593.801077164695,1253.361655869383ZM-1796.1706936581177,1253.3199069878865ZM-1596.2618380117929,1253.15410365977ZM-1629.170519601932,1259.031756523642ZM-1591.6279377151805,1257.8439233278114ZM-1598.1165524118333,1256.9233806841312ZM-1734.755535759774,1259.0520303387857ZM-1595.7624953076156,1258.9482759506318ZM-1572.361298809119,1259.0520303387857ZM-1564.1640889736664,1279.5745713113847ZM-1610.083644069513,1293.0456679759463ZM-1620.5059249955157,1280.3860976621218ZM-1555.7351841235286,1284.9259134394088ZM-1603.8278786688752,1291.8164224339944ZM-1622.4154114971388,1299.9139010106373ZM-1708.2064828528673,1303.5968168288473ZM-1722.7633213713052,1293.9401716457887ZM-1655.060440139132,1295.084760445181ZM-1679.0688373662779,1300.9129688788762ZM-1719.4916279719328,1298.0192639569905ZM-1767.1888430954423,1299.5602294444416ZM-1628.7510717303885,1297.7703673157266ZM-1600.0568425653255,1303.7432659592796ZM-1624.5885509466243,1299.7888661274592ZM-1574.4026117844114,1301.2249468903628ZM-1674.6426636346368,1299.3101558989329ZM-1575.3453708103698,1301.890567552984ZM-1763.106217144319,1307.820906803463ZM-1739.7809207368628,1304.4504971440183ZM-1773.995882841562,1317.51434107774ZM-1556.4142902015956,1313.1251039509843ZM-1604.2992581817234,1316.9526338739543ZM-1609.5084012740554,1326.2895310867625ZM-1762.6588060811919,1348.6925820682354ZM-1779.496642073107,1329.8440275841167ZM-1529.1102311255963,1330.3638402895049ZM-1720.4343869978766,1325.9564222845584ZM-1757.1380731412864,1326.4132561895076ZM-1558.2758398035294,1327.1210958749125ZM-1523.1420871225637,1331.2571340037084ZM-1783.5273363829256,1332.6095090464387ZM-1793.0827583742648,1335.85160909377ZM-1759.6228024383672,1335.4567735309847ZM-1550.4741093901612,1334.6670854751846ZM-1612.7041945821475,1337.5557592999048ZM-1785.0972698456462,1362.6076046406306ZM-1760.3578348993542,1341.2954832830328ZM-1559.8977049075547,1338.6985394661424ZM-1793.9975542086104,1338.885232671164ZM-1625.6112048052382,1339.1967815803964ZM-1525.9703642004388,1341.1302088733937ZM-1558.0121868556453,1341.9399251385366ZM-1757.661384295723,1342.7091930683619ZM-1623.3062388817634,1341.856695485556ZM-1760.9051145032208,1343.748324720109ZM-1554.5048036999797,1342.2514396153183ZM-1758.1048006172132,1343.3119892987015ZM-1769.0503926973834,1345.555417175674ZM-1759.5469023473488,1348.9208120836429ZM-1804.6555248911754,1373.859052980224ZM-1853.714946911925,1361.7771065519064ZM-1782.5845773572364,1359.6383701871546ZM-1787.0626827301894,1363.148187294706ZM-1829.131306889576,1432.6589013076627L-1874.4516507399821,1420.9961366895186L-1874.7632405875556,1420.3321876866194L-1819.8914694874256,1363.1885820583284L-1819.4999848072184,1363.293132937475L-1797.4530057229713,1407.5243563805288L-1796.6940048122924,1408.3333217136296ZM-1571.782061271777,1365.6810626032511ZM-1773.1050554569156,1380.5006323125417ZM-1778.6297831384363,1374.4196053273972ZM-1511.9368368361538,1379.2550863016259ZM-1410.3066148970975,1374.66899997377ZM-1505.9926612830968,1377.4501920488547ZM-1508.4813853217856,1377.22100956971ZM-1767.8959123648456,1377.0761367662672ZM-1810.9911851244397,1377.242384181529ZM-1802.7939752892635,1381.4967913874716ZM-1828.9235803246047,1382.139110983966ZM-1874.5555140225842,1390.1270894385889ZM-1805.5703207255356,1387.3887147556961ZM-1807.5597020597997,1387.699718459071ZM-1555.9708738800837,1388.135355190736ZM-1565.526295871423,1396.7434166032544ZM-1796.5102466970202,1395.4985993989321ZM-1868.4555435456205,1413.0798845266563ZM-1572.1256090525785,1409.4933511558647ZM-1576.6276828752234,1416.7062724156876ZM-1827.6931999008011,1418.7173027456647ZM-1827.5893366184464,1420.1258860209891ZM-1811.3826698046541,1426.0309630802512ZM-1790.414270961941,1427.2933797834175ZM-1794.756555119333,1429.1163744618643ZM-1846.1489062551263,1431.2912477782866ZM-1795.1520345411627,1436.9451239600257ZM-1566.6008813710578,1440.589731408074ZM-1925.31669598,1599.0969837121447ZM-1932.2795306500338,1601.0938022113169ZM-1934.76825468873,1603.3378459013475ZM-1936.6817359319612,1607.8666202782788ZM-1939.9773977808,1613.9378099240075ZM-1653.4250178414732,756.4100990186616ZM-1657.200797343845,758.0224497330655ZM-1820.7341371300063,1240.4342254457424ZM-1820.9051842353438,1242.762548843937ZM-2003.1019736959424,1533.683393477546ZM-2003.838241842146,1534.9102601273535ZM-2003.8500718586365,1535.1686657937807ZM-1928.0991949731688,1592.2387745470623ZM-1940.2445708231608,1613.9856586044789ZM-1821.0327350809239,1242.4210076015079ZM-1821.0134636403527,1243.0257597145956ZM-1591.0787449096897,1026.4255372833704ZM1340.6562331608438,-1158.04563752803L1370.1613948779486,-1106.4505625879174L1370.8405009560156,-1103.7940163542717L1282.7204952268512,-778.1119788260439L1281.593978085628,-775.3567669681343L1321.389594254797,-662.9986128990131L1322.4881482044075,-662.6397849435943L1281.462151611704,-606.7389410836458L1281.6459097269544,-606.0435105263332L1076.7875691948138,-683.305000775108L1076.2642580406537,-683.281830652275L1123.2823670858415,-904.1395533992909L1123.3382934687688,-905.4116283805088L1030.7921140079561,-980.5162667287168L1030.0051499059118,-981.2215116897496L1088.044751122543,-993.0039496713525L1096.1101344838098,-1007.7325431304725L1095.7705814449,-1127.2810026921543L1093.701305278002,-1129.5505892949604ZM1031.5231517273205,-987.1237223449662ZM1120.482053199834,-900.2341036867492ZM985.2630674657703,-706.5796694182754ZM-456.7258339195978,556.2790387409514L-352.9224725310487,617.0219933561566L-352.58291949188424,618.3669150705282L-390.3611911351836,662.7531463256419L-391.3039501611347,663.4994317902128L-376.4834586948273,755.378725976334L-376.32766377117514,757.2682013657995L-473.06432720708835,795.3144221857165L-474.71415550243546,796.3748265113172L-449.0039983388633,803.0529397323753L-448.29692906946,803.4556348417591L-476.65160519564233,842.1972828455218L-477.12298470849055,842.9602989077393L-597.1290181689474,845.8595597221556L-598.2036036688369,846.4311393198368L-650.5906454718934,653.6740722201175L-652.4202371408683,651.9247317273548L-566.5532656938522,558.6543356066213L-566.289612745968,557.9687052433619ZM-376.43152705377724,763.2346514126912ZM-405.7009990140432,757.9692776850443ZM-391.9311245979261,761.5788570610475ZM-393.0296785475075,767.3111308076532ZM-384.96828992788505,765.2304559647855ZM-391.9311245979261,772.1921161678747ZM-382.9509454022991,770.557530007638ZM-401.64633625451097,774.4628812129467ZM-416.5147646205296,795.208864734368ZM-407.90210165514145,793.6824811012102ZM-464.31983776800917,794.5937111947533ZM-409.78761970679625,797.4133505872378ZM-419.23917841551884,796.9899385744811ZM-434.9704709746002,808.7968294044349ZM-432.01436216464936,808.4791046001137ZM-454.31700471355,825.6404809718333ZM-536.0254501181626,840.2290844841118ZM-526.7336810749839,842.4310345436788ZM-498.90231610320916,845.0554523144256ZM-591.764080153218,849.7320127215535ZM-591.4764587553582,852.0590874673944ZM-520.6337105982675,853.4562028692435ZM-509.08890727267135,851.6571307619943ZM-504.42704378447525,854.0481992531895ZM-481.54516369852354,853.7104360630692ZM-587.9930440496682,862.8478973877627ZM-579.5122075582185,870.165040458829ZM-592.1835280247615,865.3020936026296ZM-568.9341317083163,866.7178728931212ZM-572.153893466384,876.1060898908854ZM-585.5322832023012,877.6071712112134ZM-589.3033193058509,880.1640155111891ZM-582.5482112007885,891.7864554291646ZM-1480.3104673108828,910.4778793855676ZM-1317.1292662579071,983.5095212554897ZM-1319.9575433357677,985.8044763626058ZM-1295.873246017596,985.2575600018499ZM-1292.7054159008403,990.7310396382636ZM-1283.5934102312603,997.0234388737736ZM-1331.6102046853339,1011.8556231715975L-1243.3304092908875,996.9812937377592L-1240.8416852521987,997.8867975295234L-1257.1801785396601,1039.7715247226388L-1254.7953177835952,1046.3060733007696L-1198.6132714272826,1106.062957276412L-1197.5386859273785,1107.1111139582608L-1272.204401829331,1159.5810974191245L-1273.4627454444708,1160.50151767038L-1282.363029807464,1263.2209626298827L-1284.4602691659456,1265.9919506504448L-1329.2013754792788,1247.066399712994L-1329.8285499160338,1246.648812186937L-1401.0388143036253,1299.1434389403366L-1404.046854754859,1299.997257284056L-1418.4718667993657,1241.2900030803612L-1418.995177953504,1236.6176410403787L-1367.5548899180285,1163.7436864567626L-1367.2672685204307,1163.011270131119L-1495.8859649462684,1153.7658112710942L-1497.511824791647,1153.116931157676L-1453.8173407868817,1091.9316684856003L-1453.0303766848447,1091.1145152380923L-1404.4663026266571,1112.6222639426214L-1403.2558959112066,1112.0383461698111L-1432.9008735854732,1087.4868248039456L-1431.9301513679384,1085.0324877266758ZM-1292.5496209771736,1008.1739221560711ZM-1396.0653609678484,1021.8017586602ZM-1376.4791427309901,1019.2367633496015ZM-1498.322757343667,1029.7478419970103ZM-1384.9120423227432,1030.505520345534ZM-1237.4461548623658,1043.0762617553737ZM-1251.9710354476047,1040.423127362019ZM-1243.9655167789897,1040.5809854558047ZM-1243.374351448685,1052.447297271001ZM-1412.503722796333,1063.4619430201765ZM-1446.4590266950254,1086.2278797180352ZM-1401.5860939077465,1094.0194369672881ZM-1428.6304947774843,1110.0023291289071ZM-1494.471826407469,1123.2852443270458ZM340.18916961184004,226.21530885896755L404.14897793181444,196.93543836160825L405.7189113945351,196.37043115235974L491.4300879176444,235.8371377383064L493.9427804060542,236.20537065306235L481.85069747659145,338.5514411029744L480.6203170530498,342.58660590276304L410.87612284529314,404.567491763255L410.1690535758971,406.50482567162L489.20501682683243,504.37831588979134L490.331533967772,505.2996971805951L472.03162253738265,575.8932065542649L471.9517277047271,577.6256397861689L374.64381621473876,587.5873349775975L373.59719390643295,587.4589238671997L319.1169074867721,533.1366635091181L317.4670791914177,533.2224504916703L265.86700149066746,550.0936750279961L264.8163844404917,550.4145518151327L239.21408530116605,625.4116557786983L238.40315274915338,625.7743448656402L163.9451634121433,592.6303324843102L162.13954019313678,590.8353136080459L137.1883839400325,462.082052823549L135.3827607210187,458.8608811060658L160.48971189777512,414.0150751975434L161.98374526921543,413.11135113020646L268.58742054404865,412.0142808920409L269.73790613496385,411.73477289177936L271.31183433929255,251.67127587848518L270.5248702369936,249.93898902901492ZM1349.2169644849346,-1519.3662111204176ZM1314.1870750865928,-1400.1300738627997L1348.2222738179262,-1514.0954702851468L1349.3208277675367,-1517.4312395139605L1436.7617274186414,-1452.8088463444165L1441.76314394574,-1450.9021685411844L1492.943773774954,-1477.1227201313577L1493.702774685662,-1476.5872493348252L1473.9887247161969,-1302.2032296392663L1473.361550279711,-1302.8734144710088L1499.2554655585045,-1175.291538404741L1499.830708353962,-1173.8219018928503L1549.2856097965487,-1138.4027933324778L1550.8275800679257,-1137.944747074278L1522.0294876202315,-1108.5123153571021L1519.960211453341,-1106.6799284254212L1370.029568404003,-1058.9486796987694L1367.045496402483,-1057.9428694197832L1340.6562331608438,-1155.199279117316L1340.6562331608438,-1158.04563752803L1115.1930152748755,-1129.3682269994115L1115.5085998640643,-1126.7313501830558L1074.722287769524,-1188.4146271520094L1073.8314603848776,-1189.7247161813266L1175.8531670041339,-1257.9852853461925L1176.0648883107206,-1258.3071961235455L1199.2303950529094,-1417.4210270113963L1199.8615642310542,-1417.7226064434126L1273.137110044183,-1395.0727619787522L1275.545939250238,-1393.7508782029654L1302.1988554397321,-1269.1928126399089L1302.2228238894604,-1268.5698086182601L1340.7880596347895,-1330.2646747925064L1342.8054041606374,-1330.6127491482548L1405.8424271627591,-1282.623191196015L1410.16473761206,-1284.6307658714304L1436.7617274186414,-1405.4899267030305L1430.5299304677173,-1414.8903087277013ZM1340.053027174079,-1330.9820049239534ZM1334.3485361191852,-1303.3823450514174ZM978.7341748989347,-1165.9075270511512ZM-101.56933410763304,654.0144114634804L-3.6821850808046293,730.9673888378038L-3.498426965554245,732.8805095281114L-21.434816907087225,857.5599553700249L-21.826301587549096,859.7181051400185L-168.88073065933713,899.412284061882L-169.53187354582042,900.1519058999784L-76.72204113711632,801.5439914397975L-76.54627250538033,800.926559301306ZM-91.38274293817085,777.2555326680886ZM-95.99666952668485,782.5947448708848ZM-88.1230337639281,789.0639659789376ZM-89.33743522099394,792.5892061724317ZM-87.05244300564664,812.8711297678656ZM-95.56523743004072,817.8515944864848ZM-111.17668773999321,845.0554523144256ZM-138.58797632298956,844.9765680231249ZM724.0918302302016,11.224871550079115L768.2337252981088,104.53439599854391L768.8848681848394,106.77768911727617L691.6824913445089,203.98640967885513L691.7064597942226,205.8521851441892L755.4305783576201,213.40077590201508L756.4252690248832,214.46300752739262L738.2571840681776,291.89569177283374L737.8896678379388,292.4573349609145L777.8410789307454,374.75990028446176L777.5534575328857,376.2679354880238L651.3635640211869,383.9386727492856L649.0346296477874,385.0159916763023L624.3471263428073,548.1671060387689L623.9037100212881,549.7727942674828L530.4147715347717,602.6718377019715L529.0765330869908,603.4833995113149L476.40586462796637,605.0221196533239L476.1142484884913,604.7226935548606L489.1810483768495,507.1865245869867L490.331533967772,505.2996971805951L410.1930220258728,407.62429898402297L410.1690535758971,406.50482567162L478.9185571163689,345.1113461453988L480.6203170530498,342.58660590276304L478.6309357185237,225.6943682350029L478.7068358097895,220.44839420707285L550.6241694667988,51.20078364433175L551.5149968514452,49.149859937058864L600.3666923072451,84.6413121156711L600.5744188721801,86.66812453144485ZM-1080.22910307056,1075.550293021579ZM-1103.4505361954434,1088.073672413906L-1052.6334278551076,1151.087584393803L-1052.6334278551076,1154.6445282993955L-1114.0805436863957,1207.1699778775783L-1113.0578898278036,1213.8506985036565L-1012.2905320820937,1216.5024632246696L-1009.8297712347266,1216.355547854746L-1036.1671028350465,1259.6566601768245L-1036.978035387052,1260.469967667579L-962.1565245614402,1320.6535025279518L-961.896866354924,1321.1318422433196L-990.4592690460413,1363.832514156691L-991.6097546369565,1365.0787534922565L-1150.1570553933125,1361.4444250794058L-1151.8588153299788,1361.2994697589584L-1207.0701394687494,1252.4861088759135L-1207.8810720207548,1251.4232479260154L-1247.2053086767992,1243.0000196990386L-1248.0402096785183,1242.8747255233702L-1252.3625201278192,1293.0039793463075L-1253.8805219492278,1292.7335972725705L-1291.5549303099178,1222.8680379769776L-1291.918451798796,1220.9895712123744L-1264.6942875554305,1154.1632726255084L-1265.3733936334975,1150.5643595229958ZM-998.3129311007287,1215.5624301113658ZM-1051.398241781506,1219.7718430046207ZM-1011.8990474018865,1226.644882456776ZM-1026.4279227287334,1245.2719213952114ZM-989.1729622395724,1249.19241815257ZM-991.0065486501626,1251.6105339334936ZM-1020.8272949561797,1256.6560387129612ZM-983.1808497868187,1269.784317089243ZM-1012.3704269147274,1268.762659084372ZM-1003.9135588732606,1306.301832886389ZM-1007.3170787463168,1297.8537300777134ZM-964.984801639046,1314.7890021954609ZM-996.0598968185805,1311.1492431478819ZM-971.6600149112128,1326.9129096162542ZM-978.2593280923465,1335.1451824462893ZM-975.9823253605136,1337.9089440645603ZM-1007.3170787463168,1372.0739982586547ZM-1003.7817323993222,1388.9852425908048ZM201.25205554259446,586.0695973790698L262.93086638884415,657.361454392123L265.3956219775646,660.7288006914532L201.69946660575079,792.388989989302L201.35991356657178,792.5794987561403L303.77310486628994,845.033653882625L304.87165881590045,845.2879678054996L299.00737809548446,897.7649805691926L298.71975669787935,898.8418427336255L237.9038100447142,877.2261634302577L235.89046026074357,876.9092575611303L149.02480340510374,923.1835113140623L147.42690675105405,924.2388210896243L67.83966915435303,1070.5983984904724L66.11394076798024,1073.347028165188L25.35159712343011,1032.1651222224864L24.69645949507685,1030.042497221979L89.59503209938703,978.1201222621658L90.19823808618094,978.1201222621658L81.55761192945647,863.356181496003L81.13816405765829,861.6219244970143L122.68747180450737,831.4218777316546L123.10691967630555,829.7073423363327L68.67856489770202,737.3216235339933L68.4668435911226,735.7918830978033L157.84519293544872,698.8516476503173L158.86784679404082,698.8723495217382ZM237.43243053187325,677.178777658044ZM320.319324718992,814.8789469433395ZM301.62792860811896,814.9844258788871ZM287.933954283013,825.9155833635014ZM286.387989270268,821.6578415456315ZM283.1682275121857,822.8444544205013ZM282.01774192128505,827.1444199424695ZM295.1884050922454,835.2540386908331ZM287.3866746788626,833.3701337894126ZM297.51733946565946,841.8375676572141ZM295.86751117031235,843.4895527074041ZM291.7329535778772,873.1460139857081ZM250.0518193570897,880.5232118797612ZM276.52097743136255,889.8219279738223ZM277.69942621386144,891.5120347678148ZM275.91777144456864,891.5748979003838ZM241.23142982675927,892.8430090067086ZM278.7180853308455,892.5468397508812ZM276.65280390530097,892.6955292177208ZM278.37853229167376,895.0611515441251ZM275.71004487960454,895.3995984610501ZM279.24139648498385,896.1175751776718ZM283.1961907037912,901.6939272197469ZM206.67291994125117,909.5911578184696ZM162.40319314103544,925.0405388391464ZM168.61901112521446,925.5983463198609ZM167.64856300561223,926.0735363368021ZM162.87457265386183,928.1843923478409ZM148.23783930278296,934.2175258716834ZM142.89686973679636,932.551850901531ZM141.95411071084527,936.6856720645719ZM158.91977843506902,939.3008133847707ZM130.06975434633932,964.322998073214ZM131.66765100038901,967.9878177361552ZM-759.1597336312334,638.8949235814798L-639.4892584678091,664.9907194752032L-638.1550147616508,666.5465430240038L-624.9084514996721,867.5854541974331L-626.1907635645039,869.3616689635564L-841.9387697941493,924.7881935301175L-843.2730135003148,924.9354958664026L-846.1811854105545,874.0133854488213L-845.6578742563797,873.569420606982L-884.6385631319281,871.7511438903985L-885.5813221575954,871.1377650020586L-927.7058727001859,921.4748835526862L-929.379669445254,922.1498951546837L-974.0169124759777,827.991484145392L-974.6440869127327,827.1226067725383L-921.6578338645195,732.1994399312607L-920.9507645951162,730.4565511099972L-802.7982912530788,718.0620434992616L-801.5159791882179,718.6570843309728ZM-666.9011755680403,873.2948119384273ZM-677.5271883173773,867.9871698352763ZM-617.9176536383093,866.675521616ZM-651.5054413062535,871.8781732515945ZM-658.7558973741397,868.7276658765168ZM-642.9207415324563,877.7124009694562ZM-686.7710204611358,872.3221663442528ZM-696.378374093525,872.3645086223314ZM-692.8709909378522,885.7013895044602ZM-671.9505289948138,899.1802416058217ZM-685.2250554483908,874.9436310574729ZM-653.7305123970655,881.0311580594407ZM-600.3248114770395,874.1186294330673ZM-862.9071686368625,878.5372910834503ZM-605.5059913780351,879.931805175831ZM-858.1694050576407,881.4749983269485ZM-701.9550334163505,890.7721728974793ZM-870.764825433158,892.1249439780677ZM-735.8823741232045,888.3432987471006ZM-862.5676155977053,887.857255500383ZM-601.5032602595456,888.1099507341078ZM-700.6447581599059,905.072527118009ZM-723.9740493089848,890.3925625825395ZM-912.362070079449,913.0110345207413ZM-744.1554840496756,897.5752259337332ZM-871.8873478324895,945.6065114379016ZM-889.0647368635691,894.8919264724191ZM-770.912263521539,895.3572928317099ZM-752.4285939758774,898.9904970534244ZM-738.5548562771437,896.5406163678617ZM-753.8946641559887,921.116238957211ZM-773.9242987146354,901.2504239626487ZM-888.6452889917637,899.51863617868ZM-746.9318294859768,900.4685351149456ZM-751.6456246154776,901.0594856818443ZM-754.9173180145735,905.494217848538ZM-782.3811667561022,902.5809115849006ZM-778.7419571264982,905.1993975238529ZM-780.2080273066022,904.7342030826858ZM-758.5804960938985,906.6770911918957ZM-757.5845844707437,906.1128213957982ZM-890.5308070436731,911.5119479388886ZM-802.3269117402306,917.4860495757075ZM-790.913934888602,936.2427501484162ZM-810.5760532167333,932.4890843064786ZM-900.8691983954122,924.4078599680233ZM-839.9493884598924,961.2255932664302L-866.8100312143579,956.6312733356881L-866.9138944967126,953.1530535632337L-845.6818427060934,923.4370792565405L-843.5885980892272,922.9722028549168ZM-850.3676746442652,925.4836465995177ZM-905.1355824615312,927.8680920412353ZM-772.1945755863926,927.1087145563033ZM-769.4461933414277,938.4995236300038ZM-759.786908067741,925.7589251003719ZM-781.933755692975,935.3568842850964ZM-879.8488679113871,939.8703902868729ZM-834.1130709308054,936.9596282662988ZM-871.4958631522823,939.8498760753064ZM-808.8463300887452,938.4572863045596ZM-813.5081935769558,938.5634828814236ZM-785.1535174507881,939.3430493768628ZM-900.6335086388572,948.6212823373644ZM-778.218645972338,950.1387935054299ZM-839.3461824728438,964.6810634168141ZM-845.2384263845815,971.4858061188406ZM-862.4118206740459,968.1987707087956ZM-857.0468826580618,975.0447997077208ZM3294.4643931894534,-2867.636930604738L3400.8603418990533,-2964.690135669747L3402.142653963907,-2966.8080679097566L3437.6958545166563,-2951.758978519083L3439.1619246967603,-2950.3636874746535L3426.8061888191587,-2887.8913882984143L3425.5758083956243,-2885.6563504705045L3182.6236116309956,-2747.2105025685087L3180.5543354640977,-2745.2372704503396L3118.635840119685,-2759.5480679956436L3116.6504535270433,-2758.6597156477383L2998.214353529045,-2602.5540221856118L2996.8241834399596,-2600.006777945171L2907.002417774391,-2559.5984890954314L2906.2154536721064,-2559.62227494913L2987.7920726030425,-2643.167287913171L2990.5164863980244,-2644.8613611099827L2970.618678313571,-2692.3684640719457L2971.9808852110655,-2694.4367635806357L3168.721910740649,-2841.232082577453L3171.182671588009,-2843.263907517594L3178.4091592059194,-2916.1204283413354L3181.025714976946,-2919.1043688126483L3212.8877742585246,-2860.6168176560222L3215.400466747182,-2858.75785803267ZM1523.759210748227,-2825.133267133486L1540.9326050376912,-2926.4671333517945L1541.196257985568,-2927.063611530699L1617.168254402095,-2954.150714216521L1619.0817356453263,-2953.8756080019994L1755.4091005439695,-2777.7951481788587L1889.493786409861,-2602.3100792134537L1894.910656067157,-2596.4787082184466L2075.821442653927,-2486.6448685739742L2254.8848142909847,-2375.8698936036L2264.100683243152,-2372.524060270358L2353.0595847156656,-2364.792616652194L2365.758868373792,-2367.74896061674L2506.082157790501,-2518.5820043321746L2506.5535373033563,-2518.728636568412L2436.1302370180347,-2308.4538901239557L2437.2567541589815,-2302.848114284632L2504.6680192517015,-2246.3085666913285L2508.750645202832,-2242.524909825259L2470.924436659836,-2249.6349777655287L2470.8165786355967,-2247.5621171021976L2520.690927950229,-2137.3848308707347L2520.2994432697596,-2136.4737524566044L2632.975125829973,-2170.2130892271507L2633.3426420604665,-2170.2130892271507L2413.9274630098953,-2025.9944703236342L2412.6451509450344,-2025.1835654392344L2156.7100438662965,-2001.6489456529162L2136.5006459342912,-1986.7830747430635L1998.4024276081327,-1824.8565357240968L1997.6154635060957,-1823.4144697477695L1960.360503016942,-1651.3835003705371L1961.2513304015956,-1650.2344672211675L1759.3197892229582,-1779.5388617318968L1555.0420324927472,-1907.736348060098L1554.3629264149276,-1909.4921682562672L1373.0935352381566,-1783.521465187383L1372.5702240840037,-1783.0961195100263L1296.5423012842875,-1882.1698376341556L1296.1228534127586,-1883.0935127576831L1235.2030434769622,-1884.966751849548L1233.0059355777485,-1884.0416422305389L1182.7401015831492,-1775.947475899642L1185.4605206365231,-1765.8298868351703L1421.0823665008866,-1608.9619573819928L1420.9505400269409,-1606.9951708067983L1279.5766335600565,-1612.8022419654699L1278.1904582125862,-1612.2407637733886L1218.0016859961615,-1508.8272911727818L1217.426443200704,-1507.0319347966015L1134.068169500737,-1473.003117512484L1133.6766848205225,-1472.490383924889L1105.9811410643306,-1533.6207113936725L1106.13693598799,-1538.2428722854693L1144.9618299398498,-1665.79302056294L1145.1176248635093,-1667.953030503657L1052.4396189287509,-1766.4195149748648L1051.472891453086,-1768.258661215801L1064.168180369321,-1890.8221534844288L1064.1162487282782,-1893.7395783633401L1245.5973612116213,-2027.5453750311317L1247.1153630330518,-2028.5720904084828L1203.684531975894,-2148.514301936377L1201.091944654865,-2151.6088868809984L1410.636117124901,-2085.386470297144L1414.4830533194763,-2083.472858122328L1479.8809686282257,-2144.5801161343225L1483.128693577346,-2149.5933754220914L1458.5170903634062,-2288.862116281496L1458.5170903634062,-2292.7257125947344L1539.1509502683984,-2373.0566955892555L1541.7195691397283,-2372.4033869046016L1578.2914288091852,-2607.0141831079764L1579.6256725153507,-2628.0263382112807ZM1380.4478545883976,-2861.461208334971ZM1411.3431863943042,-2843.1901742361606L1458.125605683199,-2822.5337189814545L1458.6768800289428,-2815.8995903332543ZM2937.318512043217,-2630.161399738123ZM3013.370403292669,-2614.367559113847ZM2615.0019320315405,-2416.0262966861646L2713.4811540026276,-2576.403482301381L2714.919260991148,-2578.557199531335L2829.1688717556754,-2557.3977123398945L2832.3606703221594,-2559.0108469802926L2663.9743209184817,-2444.9789900049673L2661.381733597431,-2442.499088102728L2564.17768539003,-2271.7495135646095L2561.976582749223,-2268.4680313406407L2523.938652899371,-2330.3862051792185L2524.8015170926883,-2333.072021312042ZM1483.1806252186507,-2549.1352751486957ZM1449.3291846028224,-2543.611975714157ZM2850.137270598396,-2284.5640517031006L2834.302114756705,-2320.5913361099047L2834.6416677958914,-2322.8151039263594L2921.8988093317457,-2333.870908212115L2922.31825720326,-2333.8224480285244ZM2904.278003979147,-2316.093297473486ZM2888.2031636395695,-2300.0457695936984ZM2868.177523822531,-2295.6971147027907ZM2863.699418449578,-2291.325839482519ZM2774.7924486183765,-2254.16616953632ZM2482.3374135114937,-2236.7665754752525ZM2504.276534571487,-2236.2620872966454ZM2787.1242160460024,-2235.2255799756113ZM2505.323156879793,-2235.3454925262613ZM2711.619604400694,-2196.382492182862ZM2654.49479901843,-2181.312552692216ZM2692.588655250933,-2176.171046958496ZM2724.0312666609607,-2180.110926593885ZM2721.0192314681117,-2178.019924944445ZM2652.5853125168214,-2168.5572443589645ZM2680.7282673361406,-2161.569725089161ZM1268.1916198999897,-2141.844723061038ZM2594.7015062241044,-2138.5594096423847ZM2578.6785975255552,-2112.2439341933714ZM1441.3956277152538,-2104.1495351440735ZM2576.401594793446,-2105.3469943127348ZM2452.6484936791458,-2056.0285621906332ZM2444.898694907075,-2047.9316424672834ZM2384.214574727841,-2012.6374602727665ZM966.440821007789,-1694.8254732366422L994.9233288662799,-1765.8298868351703L995.3427767380708,-1763.2597219367472ZM937.7745550342879,-1499.503926334879ZM1057.912414968967,-1449.832476661304ZM1612.7108139754346,-2955.2627848740176ZM1362.2187731554077,-2947.579538072745ZM1361.9581703250587,-2947.2350720345567ZM1363.4761307669178,-2939.520915828618ZM1361.904096559163,-2935.9336790678954ZM1362.6047746631593,-2938.2525014997354ZM1962.987398863319,-1646.787391784308ZM953.7463330505634,-1739.357805204505ZM-233.43975022449013,457.3355691047436L-187.15267889841198,505.21381749078864L-186.94495233345515,505.4714557033931L-219.37825966886157,567.2109469901479L-218.12391079559893,568.8582909391862L-101.02205450376641,627.2030709596529L-96.69974405446555,627.310527533682L-78.55962228932913,753.1695082107854L-78.24403770014032,753.6373723298602L-179.19515356137708,786.9595190795608L-183.04208975595247,787.9353042453276L-288.31152132461284,736.4509713688021L-288.8627956700948,736.0253627515376L-373.81497128275805,753.9982903979017L-376.32766377117514,757.2682013657995L-393.4251579693664,716.9132966673042L-394.184158880038,715.9981572850302L-329.12579661047494,582.3721104941615L-325.7222767374187,579.7212890793598L-363.1090637005036,473.3548237039431L-363.7082749456822,471.33775949837946ZM-284.90800145155663,456.3043037178668ZM-277.81334030757716,745.1403932103403ZM-112.25926272314246,760.9531996759197ZM-121.6628845324376,762.7292989466205ZM-114.55623916335753,762.6758476381765ZM-107.75718890047574,763.28810158749ZM-237.13089149539883,766.1220203493795ZM-233.30792375054443,764.4238921685283ZM-131.94135475937946,771.2582528300263ZM-293.04928490383463,769.5179484913697ZM-318.57568395213457,777.3283804877756ZM-141.7524402153722,780.0782385464245ZM-300.6672572019379,771.9383126302619ZM-310.51030059088225,779.7249615718083ZM-338.0021125237399,783.0560176376839ZM-325.48658698086365,784.6267123231428ZM-346.9303600783169,780.870970003878ZM-321.4279294797161,782.5255532604242ZM-306.5595011136975,784.0744307987934ZM-143.07771868918644,787.0188951018608ZM-330.38414022561483,786.6415315440026ZM-254.38418061750417,850.9379520649982L-192.49364846468234,802.1626221405368L-191.99430576025043,803.5829919577718L-210.5059384974884,898.9481971281766L-211.23697621658357,901.7144707884181L-286.9493144271182,909.3157124175505L-288.2595896833154,909.8653922981193ZM-335.8809047155446,798.218906568045ZM-210.00659579305648,898.7366964942958ZM-247.96862555159896,936.7279121907632ZM1051.7605128506912,317.50217361893556L1148.7328660434068,396.8388677970688L1150.8780423013231,397.8072292829529L1241.5666669018246,364.1986952927291L1244.211185864151,360.29526068671294L1337.620229518303,434.21251183425557L1338.3512672373981,437.9312628542011L1250.858435944996,472.4752950285292L1247.926295584788,475.2231083077222L1211.1427146087444,607.0080218833737L1210.9349880437803,608.6100762680744L1068.4904908186218,699.1061577581477L1067.7035267165775,699.4264229473392L1054.3251369804057,568.5376422900663L1052.8870299918854,567.6393154336365L1142.237416144606,486.63991673433156L1143.6275862336915,486.490132253939L1081.1098796441074,468.997423120245L1076.9992905013933,467.83761856918136ZM1100.875861254608,452.76031983013854ZM1049.6393050424813,567.8522731137982ZM1043.1997815266004,568.8362617694347ZM491.17042971136834,27.682491824953104L524.1030797512212,129.2220070622716L524.3148010578007,130.76713385532094L480.9079384506331,219.03902772903893L480.0690427072841,220.2312874128147L368.22826114884083,199.34309653479613L367.02584391661367,198.69246787237716L321.2341205533594,255.35230204025356L318.4338066670898,257.9501330252042L265.0281057470711,209.84396036794533L264.42489976028446,209.53988277187455L306.1300024310476,38.297894854822516L306.80910850885266,37.4243851210922L407.65636108748004,100.15690391298449L407.94398248508514,100.22172429184684ZM833.8912988131196,393.9101523178597L1088.388298903068,441.327243699503L1089.0674049811423,444.52970620240376L1056.5781712628086,497.96699645888293L1055.3198276476614,499.63838760934595L970.0520674460495,468.1595187131152L969.7644460482043,468.00962678028736L973.4316188694065,507.70175908688907L971.0227896633514,507.507933980949ZM1063.5410059328133,465.04601038995133ZM1073.1243911154816,464.5090334393317ZM1075.5332203212893,465.21803725031896ZM1049.799094708018,467.51571440143925ZM1045.816337297627,468.28852336659656ZM1067.284078844772,472.0244635219078ZM1056.6580660954423,471.5945078681543ZM1044.7697149893283,479.622438753333ZM1055.7672387107887,478.01729827577765ZM1061.447761315947,479.4075252048642ZM1059.5502590391916,480.6797873162086ZM1048.98416741439,487.3483118753411ZM963.42878581494,771.0250854316419ZM920.6251291948138,824.2843177147497ZM925.3109611327163,837.4564020653161ZM919.8940914754421,881.7918497906339ZM907.9817719196144,869.9750888490016ZM903.7113931116182,879.6354921680086ZM904.4184623810215,886.1233871194927ZM921.4120932968508,883.5671156545068ZM882.3235463970923,927.6785515122247ZM898.8457978000733,920.8843853400958ZM867.6388761465932,928.3111528692825ZM980.0029688592113,971.8437757213724ZM1011.0780640387675,1032.8794411053823ZM1066.4212146517166,1285.7587274257603ZM1031.6549782012662,1263.9912395153478ZM1049.926926440341,1473.7816097117739ZM1123.8915529986261,1783.5791768733325ZM1188.524487470684,2078.3345731715217ZM1199.9229266407929,2284.0391610762354ZM1660.8387699574014,2904.5052158530116ZM1662.6164299851007,2904.465731853865ZM1672.1998151674998,2917.908933353019ZM1667.0426037167344,2915.7014924523373ZM1675.5753718492197,2922.460916306988ZM1682.5661697108444,2932.9420214325282ZM1689.6608308548166,2971.3692674033637ZM1688.0629342007742,2972.215284605092ZM1339.8692690588068,3043.6910689566494ZM1685.0269305579495,3058.882343205363ZM1683.3771022626024,3072.9869634201577ZM1691.5463489064714,3083.537617573157ZM1681.5994422351723,3078.1844460780985ZM1676.8337154643668,3082.3606901746552ZM1691.7301070217145,3104.9612289682173ZM1698.561115217788,3089.02677181931ZM1682.0947901977415,3090.242720629565ZM1680.2419775770177,3102.642095659051ZM1680.1333720550683,3106.313371708391ZM1665.836191742892,3199.037674787035ZM1680.788509683167,3230.6171104069163ZM1667.6458097035284,3234.325813190402ZM1672.6711946806026,3238.1904467346376ZM1693.6395935233086,3243.5564169463323ZM1674.868302579831,3249.5271504483226ZM1686.8085853272496,3246.698218056561ZM1444.9829057038078,3577.0514630016087ZM1447.0787142805275,3771.4656255638893ZM4771.74701894258,3905.0537439774107ZM1492.6043692632811,3921.053188041985ZM81.43603259859083,4996.686678993324ZM84.41508679429535,4996.585069073997ZM948.8610526291013,970.6232847101801ZM806.1458807212111,997.8206011387538ZM805.5606694945018,997.7872495795455ZM926.7764881236144,1095.7482734662717ZM1675.041723100083,2911.0928030995783ZM1664.1586865012796,2896.718089850039ZM1664.5357643298703,2897.9712867655007ZM1691.127891304408,2969.195058123043ZM1446.8657653807386,3753.5597226454092ZM800.2076615851547,1002.9227781237405ZM800.5156738898004,1003.0058315760434ZM800.7385775312723,1003.8900906468461ZM800.7608678954421,1004.0928310279396ZM1088.766940627982,1645.455313730452ZM1663.3052678034073,2895.685980436584ZM82.44259790924116,4997.329788170236ZM882.4034412300025,255.04877079735888L1027.308699302259,281.64537877684415L1028.1715634953216,280.908988709758L1083.9621251714198,389.96934945071007L1084.1698517363839,390.4647557501212L993.3813585951502,425.86888865733454L991.9911885060574,426.51373662572587L780.4057030604527,377.45284598219405L779.123390995599,377.9916476867802ZM-1209.846484905298,745.5865194296075ZM-1065.2288482306176,770.261204874334L-1043.0260742227256,879.6995928128199L-1042.634589542511,880.6719685511725L-998.3368995506971,884.8138425921006L-995.0931693429084,889.251281130204L-969.7744968595725,838.0487557000215L-966.7664564083389,837.9009713700761L-926.1079760461362,920.3144033001954L-919.9281107365241,919.5753406605982L-946.3173739781414,1037.7553038194128L-946.3693056194461,1038.7219544953296L-1049.2578711733731,965.4598691465453L-1048.8384233018442,963.8805336103014L-1170.3944165169087,1007.2495061048448L-1176.2547024954547,1010.551017933949L-1234.9534360820617,968.3892296798494L-1236.1838165056033,968.1782782071732L-1267.7542596479689,1013.6848522999717L-1268.932708430213,1014.1686144560063L-1282.075408409859,953.3219096262001L-1282.5747511142981,951.4885581923554L-1253.0935578469434,847.4459049528832L-1253.3052791537702,846.2616042834907L-1167.9336556695634,865.0261893657644L-1165.9402795936694,865.0056174438287ZM-1120.364272278639,804.7704159163568ZM-1111.3041982501163,807.4203985935874ZM-1144.9199491096515,823.8189159223857ZM-1173.3784885181667,828.7742976458103ZM-1139.2114633131496,831.0826145170813ZM-1155.5739250506012,828.2035489112641ZM-1147.3287783157139,833.6451559094203ZM-1147.1689886501772,839.9747220334339ZM-1194.3988190021992,860.1199397898017ZM-1162.2771015143662,851.2551679672051ZM-1175.6554912502834,856.3119491083489ZM-1286.0541710783727,878.2832953879297ZM-1254.9271442575337,872.8072838323496ZM-1272.755676175082,930.4418467943724ZM-1272.7037445337628,932.277849489561ZM-902.1794736516022,947.6091582606641ZM-1299.3566607232788,956.968940497638ZM-879.9247680024127,969.1257386526486ZM-1054.467014265705,979.5516175905504ZM-883.6159092733287,977.762236485898ZM-873.197623088934,975.9293526110923ZM-1057.8465656890476,992.6881639630374ZM-873.9566239996348,982.6264232158701ZM-1097.4544290010745,990.3937976459274ZM-1037.6611362067342,980.0155117148752ZM-913.9879299250824,988.0787578416566ZM-871.1842733047015,985.552703475998ZM-1240.8702807016089,986.8469192369685ZM-897.3338520481557,989.0255152216487ZM-1239.064025224514,987.8679612566993ZM-892.4123303536835,990.5624191718634ZM-1031.1137546666287,1008.0692047474186ZM-1053.1048073679558,992.8989226855119ZM-1282.4948562814025,995.6350228681949ZM-892.2046037887412,998.117985093224ZM-929.9029805993996,1031.3245105785572L-860.9457504939346,1001.8215311714212L-860.7100607373941,1003.0410852475216ZM-860.0549231092882,1000.7692751580344ZM-891.813119108534,1005.3139069892204ZM-856.1560552734154,1001.0425767358083ZM-1063.8147096918328,1006.5754326849456ZM-942.7580591811711,1005.818283625129ZM-1002.1878304868878,1006.4081154128653ZM-1264.166981659655,1007.8164369073165ZM-862.2040941090818,1013.0747219445911ZM-881.3668697328103,1017.5342510165028ZM-971.1367037570744,1021.9280771573231ZM-968.1246685642254,1028.1506342869088ZM-978.2593280923465,1032.7952630973941ZM-902.8346112797008,1029.5590204225864ZM-887.7824247987082,1034.4559263292667ZM-971.1367037570744,1054.0971373139146ZM-936.0309142677143,1035.380610419159ZM-953.0485136332354,1045.6750463850185ZM-916.9160755436824,1059.8293368550767ZM-918.0705558762129,1047.250783129697ZM-880.8435585783955,1048.7422995773231ZM-993.5991359712134,1059.1577797222908ZM-1000.17048596104,1053.1526673080825ZM-881.2350432585808,1056.2815481208509ZM-970.6133926029142,1058.0452887365009ZM-949.0138245818089,1076.6200423957143ZM-978.0476067857744,1069.674921036958ZM1183.682860608853,-301.0802276545219L1367.177322876436,-250.80371271241165L1368.64339305654,-250.3839539458877L1352.8841373061296,40.634601783001926L1352.5965159082698,42.054013191089325L1263.0863400902745,39.80490843755797L1261.224790488348,39.979846076126705L1233.788904938163,88.49897465348658L1231.7475919626013,89.39190203895669L1100.2446920762377,-29.144848579546306L1098.5429321395786,-29.626014576318994L913.1629518203554,43.865644654062635L911.7767764728778,44.10676913480165L892.3503479012725,-54.93169592840786L891.6952102731739,-56.904831042793376L906.4877385479194,-125.39840913426269L906.9591180610223,-126.388401215876L997.252263239694,-144.2679309173236L1001.758331803976,-147.52358220755195L1027.1249411870085,-258.00774419381014L1026.8652829807615,-258.0520093293635L1168.2871263470588,-224.5674602160252L1172.4776103224212,-224.7670134855598ZM302.38692951881967,-257.21225013448566ZM299.27103104336857,-179.16333174128522ZM292.7795758864522,-171.85009518218249ZM287.0990532812866,-172.00384991740611ZM347.3876940384216,-132.08257058702475L418.28237383682426,-131.26849809400665L419.3329908870219,-127.31175873628672L292.1244382580844,-26.910806705465802L291.6530587452362,-26.232990768967284L338.0959249952284,28.402577211461903L339.74575329032814,31.70145259279525L270.47293859594356,112.7451181405595L269.73790613496385,113.3543664780318L261.3369644764098,314.5643444428897L260.6019320154155,318.9060816657129L127.76478842289362,251.77907522334317L126.95385587088094,251.08642546291594L258.6644823224633,75.17860409100831L258.82427198773803,74.76433393884327L256.3355479490492,-91.58892213525723L256.3075847577129,-93.10392832549769ZM310.91969765131944,-8.7652495856928L337.8083035973905,-29.713728132373944L339.0626524708932,-27.896867718685826ZM296.7583385549515,-12.223506540591188ZM126.95385587088094,251.08642546291594L258.6644823224633,319.2298593341857L260.5500003741181,318.94933464591486L271.1001130324512,408.9801632434792L269.73790613496385,411.73477289177936L151.03815318905254,419.2865747415599L149.10070349612215,419.58815744038475L1.4230947289106552,554.3308880040586L0.19271430535445688,555.2945735743306L-80.62490371461172,501.48390967792693L-81.0962832277146,500.64706030138586L-11.06446762237465,513.2312957322301L-10.649014492453716,513.2533722555527L66.55735708949942,424.85728153447053L67.58001094809151,423.2228733784068L81.11419560794457,456.71238983782496L82.44843931410287,455.91710758991394L52.65565619942208,354.3217522738778L52.02848176266707,352.8765974491216ZM93.86141616550594,265.7853729467388ZM11.501827874402807,466.24771685624ZM-732.9502337629892,925.7794501380104ZM-668.4431458391409,910.7303601047479ZM-676.8760454309013,895.5470632721572ZM-679.4127063692795,895.9906615100681ZM-675.5378069831204,905.1776483543053ZM-687.5020581802601,909.9922398917151ZM-674.9385957379418,914.4254861616118ZM-735.570784275631,909.6757238178761ZM-682.4247415621285,912.5471843414216ZM-693.394302092267,925.7999751598963ZM-656.4549261923166,913.665725990144ZM-683.3395373964959,917.9498138652107ZM-739.7572735093636,923.2897686498909ZM-739.8131998922909,928.3739292856408ZM-651.872957536747,928.4584357668555ZM-753.3713530018576,930.9271142171965ZM-702.214691622612,924.9137627859236ZM-713.2641469851151,952.1628119129837ZM-700.3571367623008,928.6491779840799ZM-748.9212108202337,927.5517879871077ZM-738.9223725076372,926.8769129921766ZM-639.3853951854617,932.3828635788213ZM-627.2613543227853,934.702724696428ZM-720.2549448467325,939.5542283361156ZM-845.1345631022486,1100.424521646777L-738.5548562771437,943.0547290170161L-737.743923725131,941.3051393133373L-692.9468910291398,1008.0908704516478L-691.2730942838098,1010.0046054131235L-542.337141901713,1000.7066682376753L-541.0787982868278,1003.2938980184044L-668.4950774804456,1051.073755489886L-671.662907597216,1051.2624263532598L-718.7888746666285,1146.588958429791L-718.3694267948304,1149.6436029809229L-770.6246421239412,1154.7905793322752L-771.647295982526,1154.414675905382L-748.8692791791836,1198.5657852418062L-748.4777944987218,1199.8601724333657L-821.2579923490193,1243.1038344392455L-822.0169932597273,1243.6252887376831L-812.6692978336068,1320.5297515995899L-812.6692978336068,1323.5864750465844L-883.9314938625248,1294.4809094339707L-885.1618742860664,1293.0659167161666L-875.5784891034054,1236.2834441251307L-877.8834550268584,1236.0542781694494L-838.5632131124294,1231.5481517419103L-837.5685224451663,1230.7136909339933L-886.7078392988115,1200.758916735711L-886.8915974140691,1200.6752582752779L-874.8474513842812,1156.7777531761476L-874.2722085888236,1155.419068682062L-980.1168829529488,1192.9249827933472L-980.927815504685,1192.4862446982024ZM-729.1552292097258,947.6091582606641ZM-680.7509448170604,948.8734026375387ZM-674.9385957379418,949.5911483717482ZM-724.5732605541561,950.6442093505466ZM-673.1050093273516,953.4690547548744ZM-800.2096986736651,965.3549848649782ZM-692.8709909378522,967.1668934978898ZM-694.912303913421,968.262658995629ZM-830.1063450709553,978.3936546339919ZM-697.5288596844402,980.2046818200706ZM-826.9105517628559,1004.2413228079276ZM-627.7327338356336,989.2567791228921ZM-842.4620809482803,998.4129871667519ZM-854.8977116582682,997.2967785784713ZM-804.1604981508353,997.1920187562064ZM-784.210758424837,994.9185095021894ZM-812.118023487863,1001.5903754891351ZM-845.6059426150969,1009.5424328472072ZM-837.3847643299232,1009.6676053685551ZM-808.9262249213862,1027.036862584573ZM-816.2286126303297,1022.11695227993ZM-845.1345631022486,1035.29644022894ZM-859.8471965443241,1070.4927225662777ZM-893.1193996230868,1158.494267236245ZM-888.381636043865,1163.1165861099635ZM-894.7452594687202,1181.0347175083589ZM-890.267154095789,1184.6714600946507ZM-848.0906719121558,1232.131901051107ZM-888.7491522743803,1230.0881270962163ZM-889.0647368635691,1241.4141111574154ZM-859.1401272749281,1233.322042583808ZM-879.0099721680454,1242.395022527533ZM-913.7242769771983,1241.3102900159975ZM-913.1210709901497,1242.122948439961ZM-887.4149085681929,1243.5835250289038ZM-908.3593389612142,1249.2759284189797ZM-879.9247680024127,1243.770864596434ZM-880.5559371807904,1249.2962094452923ZM-902.5709583318167,1253.8626374914838ZM-900.214060767059,1252.9453570372934ZM-872.6743119347811,1265.2205375820595ZM-876.0778318078374,1268.263141514004ZM-900.8172667541003,1268.3668607067048ZM-869.8979664982253,1318.9066591929131ZM-878.6184874878454,1320.9033825182978ZM-871.651658076189,1322.276492174984ZM-843.3009766916512,1327.7646788941838ZM-836.5978002278862,1328.0775428535399ZM-12.350774428850855,738.3211355846288L76.92371163258213,751.9809744348458L77.6068124522717,751.9809744348458L120.80195375285984,828.9657562496905L123.10691967630555,829.7073423363327L82.23671800753073,860.5847048120668L81.13816405765829,861.6219244970143L89.85868504727114,975.6341031849624L90.19823808618094,978.1201222621658L-35.85982895156485,1026.3007376311725L-36.77462478593225,1026.6158785563493ZM-657.3177903853502,294.77058026474697L-662.9463813492184,242.48806183991474L-663.5735557860025,240.47375389500303L-621.6607265502462,259.35733517229346L-621.3731051526702,259.83423015258813ZM-690.3582984494496,299.30986698800916ZM-722.7956005267333,334.3427310614006ZM-677.7908412652541,303.6319495956559ZM-704.5196575460577,335.55181835366056ZM-678.8893952151266,314.52108401329497ZM-706.8765551108154,348.82207569419916ZM-709.0736630100146,349.05907002965796ZM-702.0588966986834,349.1244899534504ZM-711.7741083552901,348.562860620008ZM-658.3404442439642,492.4108677682616L-641.7662611999258,579.0802561094442L-641.1111235718345,582.5641530365374L-685.6964349612463,643.4813573086085L-685.6964349612463,644.313614652996L-753.9745589886443,635.6749070212136L-755.8081453992418,635.9520051977688L-800.4174252386292,717.4657722865795L-801.5159791882179,718.6570843309728L-919.9800423778288,730.43587413573L-920.9507645951162,730.4565511099972L-993.8348257277685,887.1801655333802L-995.0931693429084,889.251281130204L-1070.9333392855187,826.8051019314644L-1071.1690290420665,826.5300087811702L-1065.1769165893202,771.8739505792655L-1065.2288482306176,770.261204874334L-821.2579923490193,577.2622788355184L-820.1594383994088,576.535541680365L-819.9996487338794,531.5299433396667L-819.4523691300055,529.0455198059135ZM-689.4914395147716,479.83735050987343ZM-658.7838605654761,482.73418613009744ZM-708.8140048037458,487.3691828408955ZM-880.1364893089922,614.1609025452562ZM-879.9527311937491,614.588498006111ZM-879.3255567572414,614.4174606642791ZM-972.3151525392968,699.8087876687514ZM-968.1246685642254,701.1068377644606ZM-1025.7208534593374,721.5700344143261ZM-1019.3686291902923,-58.96969086534045ZM-1018.0207606536715,-58.26703554654887ZM-1019.7460323805572,-60.1253058860093ZM1524.4902484673366,-1110.9177071107442L1549.7010629267315,-1136.8895690241607L1550.9873697332077,-1137.1874813309769L1584.5232257601092,-1077.562069238642L1585.9613327486222,-1075.2975696345966L1619.7328785320642,-846.0134460628178L1620.2042580449197,-843.3850713096908L1652.2500754417415,-828.4420916813197L1652.9571447111302,-828.8500669154873L1594.9175434945282,-654.0321072216502L1595.4927862899858,-653.3134412832933L1502.2115743684335,-642.9356995258258L1500.6935725470248,-642.7789241117171L1487.1314246958354,-571.7167033394271L1486.8957349392876,-570.4175779775105L1433.6218604934547,-558.6889230146953L1428.9599970052805,-559.0692425180459L1313.168415969616,-629.2859660241993L1312.9566946630366,-629.3077993593251L1282.1971840726983,-774.882520404235L1281.593978085628,-775.3567669681343L1345.78947616215,-1055.1532490395384L1344.9745488685294,-1055.8398333873392ZM1630.9141603687895,-869.7183721781712ZM1643.8970706828986,-784.9109208372192ZM1633.1112682680105,-778.3601187371587ZM1630.2310595490999,-745.8811032391859ZM1557.9222412119052,-622.485212374122ZM-363.7082749456822,471.33775949837946L-339.38828787121747,590.3657514332644L-339.38828787121747,592.7587180496666L-413.81831401661475,614.1609025452562L-415.46814231196186,614.1609025452562L-456.7018654696294,558.0544100302213L-456.7258339195978,556.2790387409514L-564.1684049377727,558.7608515538977L-566.289612745968,557.9687052433619L-584.0422445724835,608.3106914452492L-584.6414558176548,609.9762049387064L-686.6391939871974,646.3392327840083L-686.7190888198311,644.7602403509954L-642.1857090714693,583.4411700412275L-641.1111235718345,582.5641530365374L-669.9092160192522,497.3018459397026L-665.3032789139907,493.3768633990112L-619.8790717809607,523.004445929042L-619.3038289855031,523.1540187700793ZM-305.61674208799377,918.3930393880801ZM-297.6592167507333,927.4467548960329ZM-345.3324634242672,920.4617303333234L-293.26100621041405,928.8387116223221L-292.4221104670796,929.2189820616131L-295.1984559036209,1029.4543862409973L-295.9015304314089,1031.219883258409L-264.9342932758227,1038.0486691333026L-264.2272240064194,1038.3853139176608L-378.21318182282266,1128.3329643520647L-378.24114501440636,1129.2544434216416L-450.9933796731202,1043.448905837904L-451.9641018904076,1040.3606126630602L-548.4091491870931,1027.5829291995778L-549.4038398543562,1023.547307458306L-520.1343678938283,963.2897658444763L-518.7202293550363,961.4992981989453ZM-284.09706889954396,1030.4838726886246ZM-289.1504170679618,1032.1434758999294ZM-274.5935785495167,1032.606462893982ZM-248.4639735141609,1036.5565607105ZM-269.5402303810988,1034.3296666103379ZM-251.39611387435434,1035.9060669456212ZM-249.90607524455118,1036.8932241423754ZM-330.38414022561483,1102.7299332853545ZM-342.8197709358574,1100.4449137650972ZM-349.6787423232672,1103.0861630521122ZM-376.4834586948273,1131.1392440113996ZM-1451.5643065047334,1533.1969842258459ZM-1463.3967312279347,1540.790086149038ZM-1460.3607275851173,1529.627009909529ZM-1448.2127182727272,1534.3943533905858ZM-1460.1530010201532,1536.3331803224228ZM-1454.28872029973,1547.4334020651768ZM-1466.32887158815,1582.826197043285ZM-1460.8840387392702,1540.9352926572974ZM-1451.1967902742472,1541.3472972870568ZM-1352.9700882082616,1553.1252450257089L-1193.220370219955,1737.9172916416537L-1192.4893325005833,1740.3756507896142L-1240.6339586869726,1796.8434743196212L-1241.001474917466,1797.8455353218724L-1212.07155599611,1832.2968781477157L-1212.6987304325958,1833.440263823055L-1334.5663134952629,1918.9790369405218L-1334.6981399692013,1919.3862173841462L-1298.0463854671034,1817.6099583982523L-1297.7308008779146,1814.6472401275532L-1352.578603528047,1739.9249087937587L-1353.049983040888,1737.9172916416537L-1311.816259883235,1746.7462388699987L-1307.5738442668298,1745.3532699011266L-1298.4658333386542,1704.829059574844L-1299.8000770447834,1702.470352309303L-1341.8447327544854,1699.6183979069829L-1343.3906977672013,1699.0026576450728L-1372.0050320996525,1767.6309015827246L-1373.183480881904,1766.3818342450231L-1340.2747992917648,1859.1384434671618L-1341.2934584087416,1860.6280687303952L-1451.1728218242715,1841.6278502548885L-1451.5643065047334,1841.4444494093168L-1479.1599817199603,1789.093141539499L-1479.2358818112407,1788.949781386149L-1420.8047959141331,1747.544953262979L-1420.2535215686512,1737.9172916416537L-1462.2462456370267,1581.9609561891975L-1461.9306610478307,1578.2733654025742ZM-1466.6444561773387,1584.0627145855797ZM-1465.5459022274663,1600.6202332328885ZM-1464.5751800101862,1604.0375270531986ZM-1541.3381352706201,1672.0520242860512ZM-1525.7866060851957,1651.796423839949ZM-1518.5321552756868,1652.371441553385ZM-1513.822354888056,1653.563772491072ZM-1549.3995238902571,1665.952117952038ZM-1552.7511121222706,1680.0390976377003ZM-1582.8035534432129,1727.138230497816ZM-1320.9282655530478,1703.352469429854ZM-1318.9109210272,1729.392289928839ZM-1215.0276648060099,1787.4365567774403ZM-1239.4275467133994,1806.5742174748611ZM-1465.3341809208869,1810.4165962795196ZM-1330.851203774626,1834.3592630457078ZM-1645.009670185238,1857.9552108122134ZM-1655.795472600119,1863.9531823349153ZM-1331.6861047763596,1918.917872004493ZM-1647.0230199694633,1960.5258163542403ZM-1525.9943326501598,1975.0389699491188ZM-1657.549164177828,1966.279366836885ZM-1259.377286439165,2028.8213933775205L-1225.0025346689,1980.7896687896682L-1224.507186706076,1983.613446306792L-1255.7900084508292,2105.4169282210314L-1254.5076963859683,2108.654197796155L-1284.5361692569713,2085.0979270238186L-1285.3750650003058,2081.08876269766ZM-1391.9268086340599,1978.5341713767211ZM-1435.046049843375,1987.0872843186935ZM-1418.995177953504,1977.9039962181068ZM-1284.9036854874576,2001.3845634212375ZM-1452.7946869282969,2093.781718890348ZM-1371.086241523415,2152.984850145318L-1408.4730284865072,2103.9200129175915L-1408.732686692776,2102.9087129806703L-1332.4451056870603,2107.3594481230593L-1332.3132792131146,2108.654197796155ZM-1254.0123484231735,2094.2675514620223ZM-1525.7586428936047,2236.877088528581ZM-1627.416828024223,2253.9127381602593ZM-1607.3632250158698,2258.744154152011ZM-1541.2063087966744,2277.015207337099ZM-1629.3023460758704,2319.2903434781865ZM-1584.6371398538104,2341.4791870979943ZM-1611.4178877756713,2388.915789217818ZM-1679.7479434443449,2455.023116543125ZM-1684.0942223433594,2456.9627185999707ZM-1711.925587315127,2484.3072403064316ZM-1769.338014094974,2573.9467218093478ZM-1770.7761210837562,2584.6034341218883ZM-1600.5042536284454,2691.4055641769573L-1670.4801428508727,2787.2422569000437L-1670.8476590811042,2787.7172320751115L-1734.2282298640057,2745.0073403633814L-1734.4399511705851,2744.8491809708257ZM-1522.1713649053054,2738.8646203576354ZM-1715.1693175228938,2736.406631688302ZM-1686.3472566255004,2801.941126212908L-1722.7113897300078,2767.784825234765L-1723.7580120383063,2764.7359303515714ZM-1725.1202189360556,2763.468587106241ZM-1730.4092568607666,2782.492681493338ZM-1724.1255282687998,2787.8157361705917ZM-1730.6689150670354,2816.218067367615ZM-1702.1864072088065,2818.668764022438ZM-1696.9253324751699,2814.497433607021ZM-1703.0213082105329,2819.9542723876084ZM-1795.100102899858,2893.463041607707L-1796.566173079962,2852.5531694701713L-1794.6526918367235,2851.802882203562L-1760.2779400667205,2887.9205007110304L-1759.8065605536176,2890.7212339166863ZM-1880.3678631014482,2997.4275291080976L-1845.7574215749119,2986.1806749436255L-1844.762730907656,2987.4392690145423ZM-1915.3697893084536,3109.8594000461135ZM-1575.8184343181128,1822.989166840267ZM-1660.0943591016621,1864.8029163477295ZM-1658.6125694654838,1875.885148545378ZM-1575.9010172177514,1823.72495873982ZM-1660.395760352665,1864.8715392330032ZM-1658.151449521567,1968.9654658722338ZM-1657.6588034650777,1967.1692028214566ZM992.0710833386984,-493.3187784882939L1083.726435414872,-402.1887646410705L1084.1978149279676,-400.65449871652345L1027.7281471738024,-366.4411902039101L1027.256767660947,-365.2648657696882L1041.4700583986196,-251.31198447547104L1042.676470372462,-248.35100738647634L1001.7303686126543,-147.63437760198212L1001.758331803976,-147.52358220755195L900.4157312625393,-114.2772505489902L900.1800415062316,-113.8384429468606L911.6729131905231,39.95735416275056L911.6449499989321,40.41593527979785L877.4299878942329,3.090843300560664L873.946573188281,1.9532939125092526L773.1272838012446,106.71288568668206L770.6944861454613,107.34471199195104L734.7458061708967,14.263346145869946L734.0147684517724,13.956888568478462L604.1377284107948,85.20758883865892L600.5744188721801,86.66812453144485L553.1887935965206,48.952502731468485L552.4058242361061,48.73515818140913L525.1497020595343,97.21487947725836L524.5744592640767,97.6948519548132L492.82025800646807,29.451414385161115L491.17042971136834,27.682491824953104L728.753693718405,-100.08722164370738L731.7896973609677,-103.07312512511817L806.7150714691888,-247.1146337019636L813.3143846505991,-254.51610985121442L941.1501117160151,-337.52977847723014L945.8878752952369,-344.0055752599619ZM906.7753599457719,-454.3620776894495ZM713.6735440458069,-419.538078928148ZM650.8682160583849,-243.29213112703655L675.1362714917996,-294.7475649180087L676.5743784803199,-296.9617196763447L649.8455621997928,-335.4895554979612L649.7137357258543,-336.46523779410563L706.8944674910163,-415.7774958354912L707.5456103774923,-416.5119984492176L701.185981694267,-337.197342413574L701.0821184119268,-336.02243304512376L736.395634466222,-330.3910151442051L736.8949771706903,-329.85826094884214ZM649.5060091608902,-336.59846143104915ZM913.9730177326928,-474.04126197327423ZM-569.721095810608,1027.9618015084798L-454.265073072238,1041.1588663823386L-451.9641018904076,1040.3606126630602L-381.98421792637237,1126.4060253430252L-380.3343896312799,1127.0555437027615L-413.16317638851615,1221.9712145626527L-414.2097986970839,1224.0370885439825L-475.08167173292895,1152.0705494352587L-477.64629586264346,1147.8235503358592L-574.8263756203305,1127.6211632647355L-575.5334448897265,1127.1190566563419L-715.173633486731,1290.5680626313351L-719.3361542704952,1295.4396804999924L-720.0711867314894,1386.4129476892158L-720.6983611682517,1386.891338993355L-818.9250632342446,1374.4196053273972L-819.6321325036406,1373.7972965198715L-821.2579923490193,1250.088350738859L-823.2473736832762,1247.2322398515844L-753.3194213605311,1204.2460514422746L-749.7081749225254,1202.533610835295L-772.8497132147459,1156.9034430264783L-772.9535764971006,1156.0247989621312L-723.0832219243384,1151.2336545281523L-718.3694267948304,1149.6436029809229L-672.5816981731914,1053.4674943178416L-671.662907597216,1051.2624263532598ZM-382.7432188370731,1131.8725194989129ZM-378.7364929772302,1131.9563896160416ZM-643.1803997387251,1188.3495659892324ZM-640.9553286479131,1188.8086965344937ZM-637.9712566464004,1191.4832174883086ZM-799.578529495273,1325.145047595248ZM-810.2884318188808,1326.0194753305695ZM-812.0940550381492,1326.8926857246188ZM-801.9354270600379,1328.2012599428635ZM-857.9616784924219,1363.6459892405783ZM-822.2766514659961,1373.1535959917292ZM-841.9907014351775,1392.926908017891ZM-826.4391722497603,1379.7537863672278ZM-857.5941622621831,1382.9903693047654ZM-1112.9260633538797,1370.6012118581402L-1014.2799134163506,1379.2349006339136L-1014.1241184926985,1379.4213206532986L-1073.0305786439785,1460.8538772242828L-1073.501958157096,1461.1841876600593L-1154.4753711007143,1804.795825550893L-1155.8375779984854,1806.697022468532L-1323.5967529651243,1592.8158050271504L-1323.7285794393174,1592.5895575801878L-1218.6948376269502,1561.517522975888L-1217.540357294427,1561.14592290554L-1243.7738256124067,1454.7903883493873L-1243.27847764959,1450.9818297835718L-1176.6741503672602,1355.3604016639874L-1176.494386993625,1354.3430984967563ZM-1024.7780944333645,1399.5627390902482ZM-1029.9872375257037,1407.462674773411ZM-1030.7222699864215,1408.062878444549ZM-1061.8772599988733,1464.1840326472156ZM-1071.616440105201,1466.8533160498082ZM-1054.8864621372486,1467.22498318185ZM-1122.1419323062946,1691.6368103435216ZM-1136.618875991844,1760.875452225846ZM-1144.2368482899692,1764.2126730529653ZM-1143.79343196845,1772.706252561864ZM-1147.0930885591588,1780.2151671626962ZM882.8468575514926,452.9103005993493L1054.980274608759,501.375930637445L1057.0215875843205,502.23361533553543L1014.2179309639105,519.1042125870536L1014.0501518151577,519.1630698987938L1026.1582137113364,623.5334073044451L1026.050355687119,623.9388664158105L970.8909631894057,567.5744486665244L963.2210592499832,566.3982514219842L859.9929406568772,620.5655476239262L856.5374891425163,620.6082969735526L826.6128795538971,540.1825040034928L826.9284641430932,537.14138686765ZM1043.7510558723516,513.0608152779787ZM1035.6337408697873,512.7603254080332ZM1019.506968888898,519.9613089567829ZM1030.6602875340104,524.417997332499ZM1017.3977453055486,523.9815577893933ZM1025.1914862356716,540.4581718240825ZM1029.5617335844,540.0710108513995ZM1017.0182448502092,561.4346257905636ZM1018.7479679781973,574.3111591345751ZM1013.3550667706222,627.3532658207041Z" fill="#595959" stroke="#ffffff" stroke-width="1" stroke-linejoin="round" stroke-linecap="round"></path></svg>